<svg width="800" height="800" viewBox="0 0 800 800" fill="none" xmlns="http://www.w3.org/2000/svg">
<path d="M333.333 666.667H466.667C466.667 684.348 459.643 701.305 447.14 713.807C434.638 726.31 417.681 733.333 400 733.333C382.319 733.333 365.362 726.31 352.859 713.807C340.357 701.305 333.333 684.348 333.333 666.667ZM600 533.333V333.333C599.952 286.104 583.192 240.416 552.687 204.359C522.182 168.303 479.902 144.205 433.333 136.333V100C433.333 91.1595 429.821 82.681 423.57 76.4298C417.319 70.1786 408.84 66.6667 400 66.6667C391.159 66.6667 382.681 70.1786 376.43 76.4298C370.178 82.681 366.667 91.1595 366.667 100V136.333C320.098 144.205 277.817 168.303 247.313 204.359C216.808 240.416 200.048 286.104 200 333.333V533.333L133.333 600H666.667L600 533.333Z" fill="white"/>
</svg>
